<mxfile host="app.diagrams.net" modified="2022-05-03T00:13:06.009Z" agent="5.0 (Macintosh; Intel Mac OS X 10_15_7) AppleWebKit/537.36 (KHTML, like Gecko) Chrome/101.0.4951.41 Safari/537.36" etag="lAXFYUa4tnumbSYx3YY1" version="17.5.0" type="github">
  <diagram id="Yz5n_w7WxmtSpfnDJ4aR" name="Page-1">
    <mxGraphModel dx="817" dy="737" grid="1" gridSize="10" guides="1" tooltips="1" connect="1" arrows="1" fold="1" page="1" pageScale="1" pageWidth="850" pageHeight="1100" math="0" shadow="0">
      <root>
        <mxCell id="0" />
        <mxCell id="1" parent="0" />
        <mxCell id="mOyjbri8VuRu67rKZ5Vx-46" style="edgeStyle=orthogonalEdgeStyle;rounded=0;orthogonalLoop=1;jettySize=auto;html=1;exitX=0.5;exitY=1;exitDx=0;exitDy=0;entryX=0.5;entryY=0;entryDx=0;entryDy=0;endArrow=none;endFill=0;" edge="1" parent="1" source="mOyjbri8VuRu67rKZ5Vx-12" target="mOyjbri8VuRu67rKZ5Vx-45">
          <mxGeometry relative="1" as="geometry" />
        </mxCell>
        <mxCell id="mOyjbri8VuRu67rKZ5Vx-12" value="filme" style="rounded=0;whiteSpace=wrap;html=1;" vertex="1" parent="1">
          <mxGeometry x="80" y="60" width="120" height="60" as="geometry" />
        </mxCell>
        <mxCell id="mOyjbri8VuRu67rKZ5Vx-13" value="genero" style="rounded=0;whiteSpace=wrap;html=1;" vertex="1" parent="1">
          <mxGeometry x="600" y="60" width="120" height="60" as="geometry" />
        </mxCell>
        <mxCell id="mOyjbri8VuRu67rKZ5Vx-14" value="(codigo, nome, ano_lancamento, duracao, estoque)" style="text;html=1;strokeColor=none;fillColor=none;align=center;verticalAlign=middle;whiteSpace=wrap;rounded=0;" vertex="1" parent="1">
          <mxGeometry x="65" y="10" width="165" height="50" as="geometry" />
        </mxCell>
        <mxCell id="mOyjbri8VuRu67rKZ5Vx-16" style="edgeStyle=orthogonalEdgeStyle;rounded=0;orthogonalLoop=1;jettySize=auto;html=1;entryX=0;entryY=0.5;entryDx=0;entryDy=0;endArrow=none;endFill=0;" edge="1" parent="1" target="mOyjbri8VuRu67rKZ5Vx-13">
          <mxGeometry relative="1" as="geometry">
            <mxPoint x="440" y="90" as="sourcePoint" />
          </mxGeometry>
        </mxCell>
        <mxCell id="mOyjbri8VuRu67rKZ5Vx-17" style="edgeStyle=orthogonalEdgeStyle;rounded=0;orthogonalLoop=1;jettySize=auto;html=1;endArrow=none;endFill=0;" edge="1" parent="1" target="mOyjbri8VuRu67rKZ5Vx-12">
          <mxGeometry relative="1" as="geometry">
            <mxPoint x="360" y="90" as="sourcePoint" />
          </mxGeometry>
        </mxCell>
        <mxCell id="mOyjbri8VuRu67rKZ5Vx-15" value="possui" style="rhombus;whiteSpace=wrap;html=1;" vertex="1" parent="1">
          <mxGeometry x="360" y="50" width="80" height="80" as="geometry" />
        </mxCell>
        <mxCell id="mOyjbri8VuRu67rKZ5Vx-18" value="(codigo, nome)" style="text;html=1;strokeColor=none;fillColor=none;align=center;verticalAlign=middle;whiteSpace=wrap;rounded=0;" vertex="1" parent="1">
          <mxGeometry x="585" y="20" width="150" height="40" as="geometry" />
        </mxCell>
        <mxCell id="mOyjbri8VuRu67rKZ5Vx-19" value="N" style="text;html=1;strokeColor=none;fillColor=none;align=center;verticalAlign=middle;whiteSpace=wrap;rounded=0;" vertex="1" parent="1">
          <mxGeometry x="200" y="70" width="20" height="20" as="geometry" />
        </mxCell>
        <mxCell id="mOyjbri8VuRu67rKZ5Vx-20" value="N" style="text;html=1;strokeColor=none;fillColor=none;align=center;verticalAlign=middle;whiteSpace=wrap;rounded=0;" vertex="1" parent="1">
          <mxGeometry x="580" y="70" width="20" height="20" as="geometry" />
        </mxCell>
        <mxCell id="mOyjbri8VuRu67rKZ5Vx-21" value="filme_codigo, genero_codigo" style="text;html=1;strokeColor=none;fillColor=none;align=center;verticalAlign=middle;whiteSpace=wrap;rounded=0;" vertex="1" parent="1">
          <mxGeometry x="355" y="10" width="90" height="40" as="geometry" />
        </mxCell>
        <mxCell id="mOyjbri8VuRu67rKZ5Vx-27" style="edgeStyle=orthogonalEdgeStyle;rounded=0;orthogonalLoop=1;jettySize=auto;html=1;endArrow=none;endFill=0;" edge="1" parent="1" source="mOyjbri8VuRu67rKZ5Vx-22">
          <mxGeometry relative="1" as="geometry">
            <mxPoint x="270" y="655" as="targetPoint" />
          </mxGeometry>
        </mxCell>
        <mxCell id="mOyjbri8VuRu67rKZ5Vx-33" style="edgeStyle=orthogonalEdgeStyle;rounded=0;orthogonalLoop=1;jettySize=auto;html=1;endArrow=none;endFill=0;" edge="1" parent="1" source="mOyjbri8VuRu67rKZ5Vx-22" target="mOyjbri8VuRu67rKZ5Vx-32">
          <mxGeometry relative="1" as="geometry" />
        </mxCell>
        <mxCell id="mOyjbri8VuRu67rKZ5Vx-22" value="cliente" style="rounded=0;whiteSpace=wrap;html=1;" vertex="1" parent="1">
          <mxGeometry x="80" y="625" width="120" height="60" as="geometry" />
        </mxCell>
        <mxCell id="mOyjbri8VuRu67rKZ5Vx-23" value="(codigo, nome, sobrenome, cpf, data_nascimento, telefone, email)" style="text;html=1;strokeColor=none;fillColor=none;align=center;verticalAlign=middle;whiteSpace=wrap;rounded=0;" vertex="1" parent="1">
          <mxGeometry x="57.5" y="685" width="165" height="50" as="geometry" />
        </mxCell>
        <mxCell id="mOyjbri8VuRu67rKZ5Vx-24" value="endereco" style="rounded=0;whiteSpace=wrap;html=1;" vertex="1" parent="1">
          <mxGeometry x="420" y="625" width="120" height="60" as="geometry" />
        </mxCell>
        <mxCell id="mOyjbri8VuRu67rKZ5Vx-26" style="edgeStyle=orthogonalEdgeStyle;rounded=0;orthogonalLoop=1;jettySize=auto;html=1;endArrow=none;endFill=0;" edge="1" parent="1" target="mOyjbri8VuRu67rKZ5Vx-24">
          <mxGeometry relative="1" as="geometry">
            <mxPoint x="350" y="655" as="sourcePoint" />
          </mxGeometry>
        </mxCell>
        <mxCell id="mOyjbri8VuRu67rKZ5Vx-25" value="possui" style="rhombus;whiteSpace=wrap;html=1;" vertex="1" parent="1">
          <mxGeometry x="270" y="615" width="80" height="80" as="geometry" />
        </mxCell>
        <mxCell id="mOyjbri8VuRu67rKZ5Vx-28" value="1" style="text;html=1;strokeColor=none;fillColor=none;align=center;verticalAlign=middle;whiteSpace=wrap;rounded=0;" vertex="1" parent="1">
          <mxGeometry x="200" y="635" width="20" height="20" as="geometry" />
        </mxCell>
        <mxCell id="mOyjbri8VuRu67rKZ5Vx-29" value="1" style="text;html=1;strokeColor=none;fillColor=none;align=center;verticalAlign=middle;whiteSpace=wrap;rounded=0;" vertex="1" parent="1">
          <mxGeometry x="400" y="635" width="20" height="20" as="geometry" />
        </mxCell>
        <mxCell id="mOyjbri8VuRu67rKZ5Vx-30" value="(codigo, logadouro, numero, cep, bairro, cidade, estado)" style="text;html=1;strokeColor=none;fillColor=none;align=center;verticalAlign=middle;whiteSpace=wrap;rounded=0;" vertex="1" parent="1">
          <mxGeometry x="397.5" y="685" width="165" height="50" as="geometry" />
        </mxCell>
        <mxCell id="mOyjbri8VuRu67rKZ5Vx-31" value="reserva" style="rounded=0;whiteSpace=wrap;html=1;" vertex="1" parent="1">
          <mxGeometry x="80" y="430" width="120" height="60" as="geometry" />
        </mxCell>
        <mxCell id="mOyjbri8VuRu67rKZ5Vx-34" style="edgeStyle=orthogonalEdgeStyle;rounded=0;orthogonalLoop=1;jettySize=auto;html=1;endArrow=none;endFill=0;" edge="1" parent="1" source="mOyjbri8VuRu67rKZ5Vx-32" target="mOyjbri8VuRu67rKZ5Vx-31">
          <mxGeometry relative="1" as="geometry" />
        </mxCell>
        <mxCell id="mOyjbri8VuRu67rKZ5Vx-32" value="faz" style="rhombus;whiteSpace=wrap;html=1;" vertex="1" parent="1">
          <mxGeometry x="100" y="520" width="80" height="80" as="geometry" />
        </mxCell>
        <mxCell id="mOyjbri8VuRu67rKZ5Vx-35" value="N" style="text;html=1;strokeColor=none;fillColor=none;align=center;verticalAlign=middle;whiteSpace=wrap;rounded=0;" vertex="1" parent="1">
          <mxGeometry x="140" y="490" width="20" height="20" as="geometry" />
        </mxCell>
        <mxCell id="mOyjbri8VuRu67rKZ5Vx-36" value="1" style="text;html=1;strokeColor=none;fillColor=none;align=center;verticalAlign=middle;whiteSpace=wrap;rounded=0;" vertex="1" parent="1">
          <mxGeometry x="140" y="605" width="20" height="20" as="geometry" />
        </mxCell>
        <mxCell id="mOyjbri8VuRu67rKZ5Vx-37" value="(codigo, data_reserva, data_limite_devolucao, total)" style="text;html=1;strokeColor=none;fillColor=none;align=center;verticalAlign=middle;whiteSpace=wrap;rounded=0;" vertex="1" parent="1">
          <mxGeometry x="200" y="430" width="165" height="50" as="geometry" />
        </mxCell>
        <mxCell id="mOyjbri8VuRu67rKZ5Vx-38" value="reserva_filme" style="rounded=0;whiteSpace=wrap;html=1;" vertex="1" parent="1">
          <mxGeometry x="80" y="230" width="120" height="60" as="geometry" />
        </mxCell>
        <mxCell id="mOyjbri8VuRu67rKZ5Vx-39" value="(codigo, reserva_codigo, filme_codigo, quantidade, data_devolucao)" style="text;html=1;strokeColor=none;fillColor=none;align=center;verticalAlign=middle;whiteSpace=wrap;rounded=0;" vertex="1" parent="1">
          <mxGeometry x="200" y="235" width="165" height="50" as="geometry" />
        </mxCell>
        <mxCell id="mOyjbri8VuRu67rKZ5Vx-41" style="edgeStyle=orthogonalEdgeStyle;rounded=0;orthogonalLoop=1;jettySize=auto;html=1;endArrow=none;endFill=0;" edge="1" parent="1" source="mOyjbri8VuRu67rKZ5Vx-40" target="mOyjbri8VuRu67rKZ5Vx-38">
          <mxGeometry relative="1" as="geometry" />
        </mxCell>
        <mxCell id="mOyjbri8VuRu67rKZ5Vx-42" style="edgeStyle=orthogonalEdgeStyle;rounded=0;orthogonalLoop=1;jettySize=auto;html=1;endArrow=none;endFill=0;" edge="1" parent="1" source="mOyjbri8VuRu67rKZ5Vx-40" target="mOyjbri8VuRu67rKZ5Vx-31">
          <mxGeometry relative="1" as="geometry" />
        </mxCell>
        <mxCell id="mOyjbri8VuRu67rKZ5Vx-40" value="possui" style="rhombus;whiteSpace=wrap;html=1;" vertex="1" parent="1">
          <mxGeometry x="100" y="320" width="80" height="80" as="geometry" />
        </mxCell>
        <mxCell id="mOyjbri8VuRu67rKZ5Vx-43" value="1" style="text;html=1;strokeColor=none;fillColor=none;align=center;verticalAlign=middle;whiteSpace=wrap;rounded=0;" vertex="1" parent="1">
          <mxGeometry x="140" y="410" width="20" height="20" as="geometry" />
        </mxCell>
        <mxCell id="mOyjbri8VuRu67rKZ5Vx-44" value="N" style="text;html=1;strokeColor=none;fillColor=none;align=center;verticalAlign=middle;whiteSpace=wrap;rounded=0;" vertex="1" parent="1">
          <mxGeometry x="140" y="290" width="20" height="20" as="geometry" />
        </mxCell>
        <mxCell id="mOyjbri8VuRu67rKZ5Vx-47" style="edgeStyle=orthogonalEdgeStyle;rounded=0;orthogonalLoop=1;jettySize=auto;html=1;exitX=0.5;exitY=1;exitDx=0;exitDy=0;endArrow=none;endFill=0;" edge="1" parent="1" source="mOyjbri8VuRu67rKZ5Vx-45" target="mOyjbri8VuRu67rKZ5Vx-38">
          <mxGeometry relative="1" as="geometry" />
        </mxCell>
        <mxCell id="mOyjbri8VuRu67rKZ5Vx-45" value="tem" style="rhombus;whiteSpace=wrap;html=1;" vertex="1" parent="1">
          <mxGeometry x="100" y="132" width="80" height="80" as="geometry" />
        </mxCell>
        <mxCell id="mOyjbri8VuRu67rKZ5Vx-48" value="1" style="text;html=1;strokeColor=none;fillColor=none;align=center;verticalAlign=middle;whiteSpace=wrap;rounded=0;" vertex="1" parent="1">
          <mxGeometry x="140" y="120" width="20" height="20" as="geometry" />
        </mxCell>
        <mxCell id="mOyjbri8VuRu67rKZ5Vx-49" value="N" style="text;html=1;strokeColor=none;fillColor=none;align=center;verticalAlign=middle;whiteSpace=wrap;rounded=0;" vertex="1" parent="1">
          <mxGeometry x="140" y="210" width="20" height="20" as="geometry" />
        </mxCell>
      </root>
    </mxGraphModel>
  </diagram>
</mxfile>
